<?xml version="1.0" encoding="utf-8"?>
<!-- Generator: Adobe Illustrator 16.0.0, SVG Export Plug-In . SVG Version: 6.00 Build 0)  -->
<!DOCTYPE svg PUBLIC "-//W3C//DTD SVG 1.1//EN" "http://www.w3.org/Graphics/SVG/1.1/DTD/svg11.dtd">
<svg version="1.1" id="Capa_1" xmlns="http://www.w3.org/2000/svg" xmlns:xlink="http://www.w3.org/1999/xlink" x="0px" y="0px"
	 width="566.93px" height="566.93px" viewBox="0 0 566.93 566.93" enable-background="new 0 0 566.93 566.93" xml:space="preserve">
<rect x="-675.643" y="-241.833" fill="#DDDDDD" width="595.281" height="658.819"/>
<g>
	<g>
		<path fill="#19216E" d="M421.527,245.38c-28.265-46.73-79.787-78.892-138.54-78.604c-58.608,0.285-109.733,31.772-137.586,78.583
			l39.47,0.021c23.438-28.567,58.338-46.345,98.271-46.542c39.831-0.194,75.238,18.329,98.951,46.542H421.527z"/>
		<rect x="237.436" y="87.577" fill="#2F5AA1" width="32.161" height="276.104"/>
		<rect x="296.111" y="87.577" fill="#2F5AA1" width="33.404" height="276.104"/>
		<polygon fill="#2F5AA1" points="269.597,120.464 158.875,120.464 185.164,87.577 269.597,87.577 		"/>
		<polygon fill="#2BA3DF" points="269.575,335.209 269.597,363.682 237.414,363.682 145.401,245.38 184.871,245.38 		"/>
		<polygon fill="#2BA3DF" points="296.134,335.209 296.111,363.682 329.516,363.682 421.527,245.38 382.094,245.38 		"/>
		<polygon fill="#2BA3DF" points="296.111,104.844 296.111,87.577 329.516,87.577 401.686,140.156 382.094,166.774 		"/>
	</g>
</g>
<g>
	<g>
		<path fill="#2F5AA1" d="M141.877,421.594c0,2.627,0,5.383-1.663,7.572c-1.357,1.793-3.458,2.713-5.689,2.713
			c-2.188,0-4.201-1.051-5.864-2.451l2.057-2.844c1.182,1.094,2.188,1.881,3.895,1.881c3.588,0,3.588-4.289,3.588-6.871v-26.125
			h3.676V421.594z"/>
		<path fill="#2F5AA1" d="M153.562,419.1l-3.982,9.365h-4.026l15.229-34.572l14.835,34.572h-4.07l-3.895-9.365H153.562z
			 M160.695,402.471l-5.646,13.217h11.16L160.695,402.471z"/>
		<path fill="#2F5AA1" d="M185.157,420.633l9.409-25.164h3.982l-13.391,34.967l-13.391-34.967h3.982L185.157,420.633z"/>
		<path fill="#2F5AA1" d="M205.899,428.465h-3.676v-32.996h3.676V428.465z"/>
		<path fill="#2F5AA1" d="M212.594,395.469h17.111v3.414h-13.435v9.803h13.041v3.412h-13.041v12.955h13.435v3.412h-17.111V395.469z"
			/>
		<path fill="#2F5AA1" d="M239.638,428.465h-3.676v-32.996h4.77c6.258,0,12.078,1.662,12.078,9.102c0,5.078-3.195,8.666-8.271,9.104
			l10.503,14.791h-4.507l-9.978-14.484h-0.919V428.465z M239.638,410.742h1.138c4.158,0,8.359-0.789,8.359-5.908
			c0-5.428-3.982-5.951-8.402-5.951h-1.094V410.742z"/>
		<path fill="#19216E" d="M280.424,408.859v-13.391h3.676v32.996h-3.676v-16.191h-16.892v16.191h-3.676v-32.996h3.676v13.391
			H280.424z"/>
		<path fill="#19216E" d="M290.926,395.469h17.11v3.414h-13.435v9.803h13.041v3.412h-13.041v12.955h13.435v3.412h-17.11V395.469z"/>
		<path fill="#19216E" d="M317.969,428.465h-3.676v-32.996h4.77c6.26,0,12.08,1.662,12.08,9.102c0,5.078-3.195,8.666-8.271,9.104
			l10.502,14.791h-4.508l-9.977-14.484h-0.92V428.465z M317.969,410.742h1.139c4.156,0,8.357-0.789,8.357-5.908
			c0-5.428-3.982-5.951-8.402-5.951h-1.094V410.742z"/>
		<path fill="#19216E" d="M338.23,394.068l25.732,26.957v-25.557h3.676v34.484l-25.732-26.914v25.426h-3.676V394.068z"/>
		<path fill="#19216E" d="M379.453,419.1l-3.982,9.365h-4.025l15.229-34.572l14.836,34.572h-4.07l-3.895-9.365H379.453z
			 M386.586,402.471l-5.645,13.217H392.1L386.586,402.471z M392.713,386.234l-6.695,6.74l-2.188-1.227l5.207-7.176L392.713,386.234z
			"/>
		<path fill="#19216E" d="M405.314,394.068l25.732,26.957v-25.557h3.676v34.484l-25.732-26.914v25.426h-3.676V394.068z"/>
	</g>
	<g>
		<path fill="#2BA3DF" d="M151.232,449.393c-2.038-2.105-4.857-3.396-7.812-3.396c-5.707,0-10.326,4.959-10.326,10.598
			s4.653,10.598,10.394,10.598c2.887,0,5.706-1.359,7.744-3.396v3.531c-2.208,1.598-4.925,2.514-7.642,2.514
			c-7.235,0-13.349-5.875-13.349-13.145c0-7.336,6.012-13.348,13.349-13.348c2.853,0,5.367,0.814,7.642,2.514V449.393z"/>
		<path fill="#2BA3DF" d="M159.896,462.131l-3.091,7.268h-3.125l11.82-26.832l11.515,26.832h-3.159l-3.023-7.268H159.896z
			 M165.433,449.223l-4.382,10.258h8.662L165.433,449.223z"/>
		<path fill="#2BA3DF" d="M179.804,443.789h4.212c4.653,0,8.559,1.697,8.559,6.928c0,2.072-0.781,3.84-2.513,4.994
			c3.057,0.746,4.857,3.498,4.857,6.555c0,5.096-4.11,7.133-9.171,7.133h-5.944V443.789z M182.657,455.064h1.087
			c3.227,0,5.978-0.373,5.978-4.348c0-3.871-2.445-4.279-5.944-4.279h-1.121V455.064z M182.657,466.75h2.853
			c3.193,0,6.556-0.781,6.556-4.688c0-3.975-3.804-4.551-6.929-4.551h-2.479V466.75z"/>
		<path fill="#2BA3DF" d="M202.937,462.131l-3.091,7.268h-3.125l11.82-26.832l11.515,26.832h-3.159l-3.023-7.268H202.937z
			 M208.473,449.223l-4.382,10.258h8.662L208.473,449.223z"/>
		<path fill="#2BA3DF" d="M225.697,466.75h7.065v2.648h-9.918v-25.609h2.853V466.75z"/>
		<path fill="#2BA3DF" d="M238.436,466.75h7.065v2.648h-9.918v-25.609h2.853V466.75z"/>
		<path fill="#2BA3DF" d="M248.322,443.789h13.281v2.648h-10.428v7.609h10.122v2.648h-10.122v10.055h10.428v2.648h-13.281V443.789z"
			/>
		<path fill="#2BA3DF" d="M269.314,469.398h-2.853v-25.609h3.702c4.857,0,9.375,1.291,9.375,7.064c0,3.939-2.479,6.725-6.419,7.064
			l8.152,11.48h-3.499l-7.744-11.242h-0.713V469.398z M269.314,455.643h0.883c3.227,0,6.487-0.611,6.487-4.586
			c0-4.211-3.091-4.619-6.521-4.619h-0.849V455.643z"/>
		<path fill="#2BA3DF" d="M310.28,456.627c0,7.371-6.046,13.213-13.349,13.213s-13.349-5.842-13.349-13.213
			c0-7.336,6.046-13.279,13.349-13.279S310.28,449.291,310.28,456.627z M286.436,456.594c0,5.773,4.688,10.598,10.496,10.598
			s10.495-4.824,10.495-10.598c0-5.809-4.619-10.598-10.495-10.598C291.055,445.996,286.436,450.785,286.436,456.594z"/>
		<path fill="#2F5AA1" d="M337.966,456.525c0.068,3.465-0.306,6.318-2.649,9.035s-5.91,4.279-9.477,4.279
			c-7.201,0-13.179-5.977-13.179-13.178c0-7.338,5.978-13.314,13.349-13.314c4.483,0,8.118,2.004,10.835,5.535l-2.071,1.938
			c-2.141-3.023-5.027-4.824-8.798-4.824c-5.842,0-10.461,4.926-10.461,10.699c0,2.717,1.087,5.299,2.988,7.234
			c1.868,1.869,4.586,3.262,7.27,3.262c4.449,0,9.137-3.262,9.137-8.016h-7.608v-2.65H337.966z"/>
		<path fill="#2F5AA1" d="M345.85,462.131l-3.091,7.268h-3.125l11.82-26.832l11.514,26.832h-3.158l-3.023-7.268H345.85z
			 M351.386,449.223l-4.382,10.258h8.661L351.386,449.223z"/>
		<path fill="#2F5AA1" d="M368.609,469.398h-2.854v-25.609h3.703c4.856,0,9.374,1.291,9.374,7.064c0,3.939-2.479,6.725-6.419,7.064
			l8.151,11.48h-3.498l-7.745-11.242h-0.713V469.398z M368.609,455.643h0.883c3.228,0,6.488-0.611,6.488-4.586
			c0-4.211-3.092-4.619-6.521-4.619h-0.85V455.643z"/>
		<path fill="#2F5AA1" d="M403.699,449.393c-2.038-2.105-4.857-3.396-7.813-3.396c-5.706,0-10.326,4.959-10.326,10.598
			s4.653,10.598,10.394,10.598c2.888,0,5.707-1.359,7.745-3.396v3.531c-2.208,1.598-4.926,2.514-7.643,2.514
			c-7.235,0-13.349-5.875-13.349-13.145c0-7.336,6.012-13.348,13.349-13.348c2.853,0,5.366,0.814,7.643,2.514V449.393z"/>
		<path fill="#2F5AA1" d="M414.333,436.621l-5.197,5.23l-1.698-0.949l4.042-5.572L414.333,436.621z M411.446,469.398h-2.854v-25.609
			h2.854V469.398z"/>
		<path fill="#2F5AA1" d="M420.482,462.131l-3.091,7.268h-3.125l11.82-26.832l11.514,26.832h-3.158l-3.023-7.268H420.482z
			 M426.019,449.223l-4.382,10.258h8.661L426.019,449.223z"/>
	</g>
</g>
</svg>
