<?xml version="1.0" encoding="utf-8"?>
<!-- Generator: Adobe Illustrator 16.0.0, SVG Export Plug-In . SVG Version: 6.00 Build 0)  -->
<!DOCTYPE svg PUBLIC "-//W3C//DTD SVG 1.1//EN" "http://www.w3.org/Graphics/SVG/1.1/DTD/svg11.dtd">
<svg version="1.1" id="Capa_1" xmlns="http://www.w3.org/2000/svg" xmlns:xlink="http://www.w3.org/1999/xlink" x="0px" y="0px"
	 width="566.93px" height="566.93px" viewBox="0 0 566.93 566.93" enable-background="new 0 0 566.93 566.93" xml:space="preserve">
<g>
	<g>
		<path fill="#010002" d="M422.055,250.09c-28.305-46.796-79.898-79.002-138.734-78.714
			c-58.689,0.286-109.887,31.817-137.778,78.693l39.524,0.021c23.471-28.607,58.421-46.41,98.41-46.607
			c39.886-0.195,75.343,18.354,99.089,46.607H422.055z"/>
		<rect x="237.706" y="92.066" fill="#010002" width="32.206" height="276.488"/>
		<rect x="296.463" y="92.066" fill="#010002" width="33.451" height="276.488"/>
		<polygon fill="#010002" points="269.912,124.999 159.036,124.999 185.362,92.066 269.912,92.066 		"/>
		<polygon fill="#010002" points="269.89,340.045 269.912,368.555 237.684,368.555 145.542,250.09 185.067,250.09 		"/>
		<polygon fill="#010002" points="296.486,340.045 296.463,368.555 328.693,368.555 422.055,250.09 382.566,250.09 		"/>
		<polygon fill="#010002" points="296.463,109.357 296.463,92.066 329.914,92.066 402.186,144.719 382.566,171.374 		"/>
	</g>
	<g>
		<g>
			<path fill="#800000018000000180000001" d="M142.014,426.549c0,2.629,0,5.39-1.665,7.581c-1.358,1.797-3.462,2.717-5.696,2.717
				c-2.191,0-4.207-1.052-5.873-2.454l2.061-2.849c1.183,1.096,2.19,1.885,3.899,1.885c3.594,0,3.594-4.295,3.594-6.88v-26.163
				h3.681V426.549z"/>
			<path fill="#800000018000000180000001" d="M153.715,424.051l-3.988,9.378h-4.032l15.251-34.62l14.855,34.62h-4.075l-3.9-9.378
				H153.715z M160.858,407.397l-5.653,13.234h11.175L160.858,407.397z"/>
			<path fill="#800000018000000180000001" d="M185.354,425.584l9.422-25.198h3.988l-13.41,35.015l-13.409-35.015h3.987
				L185.354,425.584z"/>
			<path fill="#800000018000000180000001" d="M206.125,433.429h-3.682v-33.043h3.682V433.429z"/>
			<path fill="#800000018000000180000001" d="M212.831,400.386h17.135v3.418h-13.454v9.816h13.06v3.419h-13.06v12.972h13.454v3.418
				h-17.135V400.386z"/>
			<path fill="#800000018000000180000001" d="M239.912,433.429h-3.681v-33.043h4.776c6.267,0,12.095,1.666,12.095,9.115
				c0,5.084-3.199,8.678-8.282,9.115l10.518,14.813h-4.514l-9.991-14.506h-0.921V433.429z M239.912,415.681h1.14
				c4.163,0,8.37-0.789,8.37-5.916c0-5.435-3.988-5.961-8.414-5.961h-1.096V415.681z"/>
			<path fill="#800000018000000180000001" d="M280.754,413.796v-13.41h3.681v33.043h-3.681v-16.215h-16.916v16.215h-3.682v-33.043
				h3.682v13.41H280.754z"/>
			<path fill="#800000018000000180000001" d="M291.27,400.386h17.137v3.418h-13.455v9.816h13.061v3.419h-13.061v12.972h13.455v3.418
				H291.27V400.386z"/>
			<path fill="#800000018000000180000001" d="M318.352,433.429h-3.682v-33.043h4.777c6.268,0,12.096,1.666,12.096,9.115
				c0,5.084-3.199,8.678-8.283,9.115l10.518,14.813h-4.514l-9.992-14.506h-0.92V433.429z M318.352,415.681h1.141
				c4.162,0,8.369-0.789,8.369-5.916c0-5.435-3.988-5.961-8.414-5.961h-1.096V415.681z"/>
			<path fill="#800000018000000180000001" d="M338.641,398.983l25.768,26.995v-25.593h3.682v34.533l-25.768-26.951v25.461h-3.682
				V398.983z"/>
			<path fill="#800000018000000180000001" d="M379.922,424.051l-3.988,9.378h-4.031l15.25-34.62l14.855,34.62h-4.074l-3.9-9.378
				H379.922z M387.064,407.397l-5.652,13.234h11.174L387.064,407.397z M393.199,391.14l-6.703,6.748l-2.191-1.227l5.215-7.188
				L393.199,391.14z"/>
			<path fill="#800000018000000180000001" d="M405.82,398.983l25.768,26.995v-25.593h3.682v34.533l-25.77-26.951v25.461h-3.68
				V398.983z"/>
		</g>
		<g>
			<path fill="#800000018000000180000001" d="M151.381,454.388c-2.04-2.108-4.863-3.401-7.822-3.401
				c-5.714,0-10.34,4.966-10.34,10.612c0,5.646,4.66,10.611,10.408,10.611c2.891,0,5.714-1.36,7.754-3.401v3.537
				c-2.21,1.599-4.932,2.518-7.652,2.518c-7.244,0-13.366-5.884-13.366-13.163c0-7.347,6.021-13.366,13.366-13.366
				c2.857,0,5.374,0.816,7.652,2.517V454.388z"/>
			<path fill="#800000018000000180000001" d="M160.059,467.143l-3.096,7.278h-3.129l11.836-26.869l11.531,26.869h-3.164
				l-3.027-7.278H160.059z M165.603,454.218l-4.388,10.271h8.674L165.603,454.218z"/>
			<path fill="#800000018000000180000001" d="M179.995,448.776h4.217c4.66,0,8.571,1.7,8.571,6.938c0,2.074-0.782,3.843-2.517,4.999
				c3.061,0.748,4.863,3.504,4.863,6.564c0,5.102-4.115,7.143-9.184,7.143h-5.951V448.776z M182.851,460.068h1.089
				c3.23,0,5.985-0.375,5.985-4.354c0-3.878-2.448-4.286-5.952-4.286h-1.122V460.068z M182.851,471.768h2.856
				c3.197,0,6.564-0.782,6.564-4.693c0-3.979-3.809-4.558-6.938-4.558h-2.483V471.768z"/>
			<path fill="#800000018000000180000001" d="M203.159,467.143l-3.095,7.278h-3.129l11.836-26.869l11.53,26.869h-3.163l-3.027-7.278
				H203.159z M208.704,454.218l-4.389,10.271h8.674L208.704,454.218z"/>
			<path fill="#800000018000000180000001" d="M225.951,471.768h7.074v2.653h-9.931v-25.645h2.856V471.768z"/>
			<path fill="#800000018000000180000001" d="M238.708,471.768h7.074v2.653h-9.932v-25.645h2.857V471.768z"/>
			<path fill="#800000018000000180000001" d="M248.608,448.776h13.298v2.652h-10.441v7.619H261.6v2.652h-10.136v10.067h10.441v2.653
				h-13.298V448.776z"/>
			<path fill="#800000018000000180000001" d="M269.629,474.421h-2.856v-25.645h3.707c4.864,0,9.388,1.292,9.388,7.074
				c0,3.945-2.483,6.734-6.429,7.074l8.163,11.496h-3.503l-7.755-11.258h-0.715V474.421z M269.629,460.646h0.885
				c3.231,0,6.496-0.612,6.496-4.592c0-4.218-3.095-4.626-6.53-4.626h-0.851V460.646z"/>
			<path fill="#800000018000000180000001" d="M310.65,461.633c0,7.38-6.053,13.23-13.365,13.23s-13.368-5.851-13.368-13.23
				c0-7.347,6.055-13.299,13.368-13.299S310.65,454.286,310.65,461.633z M286.775,461.599c0,5.782,4.693,10.611,10.51,10.611
				s10.51-4.829,10.51-10.611c0-5.816-4.627-10.612-10.51-10.612C291.4,450.986,286.775,455.782,286.775,461.599z"/>
			<path fill="#800000018000000180000001" d="M338.375,461.53c0.068,3.47-0.305,6.326-2.652,9.047
				c-2.346,2.722-5.918,4.286-9.488,4.286c-7.211,0-13.197-5.986-13.197-13.197c0-7.346,5.986-13.332,13.367-13.332
				c4.488,0,8.129,2.007,10.85,5.544l-2.074,1.938c-2.145-3.027-5.035-4.83-8.811-4.83c-5.85,0-10.475,4.933-10.475,10.714
				c0,2.722,1.088,5.306,2.992,7.245c1.871,1.87,4.592,3.265,7.279,3.265c4.455,0,9.148-3.265,9.148-8.026h-7.619v-2.653H338.375z"
				/>
			<path fill="#800000018000000180000001" d="M346.271,467.143l-3.096,7.278h-3.129l11.836-26.869l11.531,26.869h-3.164
				l-3.027-7.278H346.271z M351.814,454.218l-4.387,10.271h8.674L351.814,454.218z"/>
			<path fill="#800000018000000180000001" d="M369.063,474.421h-2.857v-25.645h3.707c4.865,0,9.389,1.292,9.389,7.074
				c0,3.945-2.484,6.734-6.43,7.074l8.164,11.496h-3.504l-7.754-11.258h-0.715V474.421z M369.063,460.646h0.885
				c3.23,0,6.496-0.612,6.496-4.592c0-4.218-3.096-4.626-6.531-4.626h-0.85V460.646z"/>
			<path fill="#800000018000000180000001" d="M404.199,454.388c-2.041-2.108-4.863-3.401-7.822-3.401
				c-5.713,0-10.34,4.966-10.34,10.612c0,5.646,4.66,10.611,10.408,10.611c2.891,0,5.713-1.36,7.754-3.401v3.537
				c-2.211,1.599-4.932,2.518-7.652,2.518c-7.244,0-13.367-5.884-13.367-13.163c0-7.347,6.021-13.366,13.367-13.366
				c2.857,0,5.375,0.816,7.652,2.517V454.388z"/>
			<path fill="#800000018000000180000001" d="M414.85,441.6l-5.203,5.237l-1.701-0.952l4.047-5.578L414.85,441.6z M411.959,474.421
				h-2.857v-25.645h2.857V474.421z"/>
			<path fill="#800000018000000180000001" d="M421.008,467.143l-3.096,7.278h-3.129l11.836-26.869l11.531,26.869h-3.164
				l-3.027-7.278H421.008z M426.551,454.218l-4.387,10.271h8.674L426.551,454.218z"/>
		</g>
	</g>
</g>
</svg>
