<?xml version="1.0" encoding="utf-8"?>
<!-- Generator: Adobe Illustrator 16.0.0, SVG Export Plug-In . SVG Version: 6.00 Build 0)  -->
<!DOCTYPE svg PUBLIC "-//W3C//DTD SVG 1.1//EN" "http://www.w3.org/Graphics/SVG/1.1/DTD/svg11.dtd">
<svg version="1.1" id="Capa_1" xmlns="http://www.w3.org/2000/svg" xmlns:xlink="http://www.w3.org/1999/xlink" x="0px" y="0px"
	 width="566.93px" height="566.93px" viewBox="0 0 566.93 566.93" enable-background="new 0 0 566.93 566.93" xml:space="preserve">
<rect x="-675.643" y="-241.833" fill="#DDDDDD" width="595.281" height="658.819"/>
<g>
	<path fill="#2C2B2C" d="M422.941,244.991c-28.555-47.209-80.604-79.699-139.957-79.408
		c-59.207,0.288-110.855,32.098-138.995,79.386l39.875,0.022c23.678-28.859,58.934-46.819,99.277-47.019
		c40.239-0.196,76.006,18.517,99.963,47.019H422.941z"/>
	<rect x="236.967" y="85.574" fill="#565656" width="32.49" height="278.928"/>
	<rect x="296.242" y="85.574" fill="#565656" width="33.746" height="278.928"/>
	<polygon fill="#565656" points="269.458,118.798 157.602,118.798 184.162,85.574 269.458,85.574 	"/>
	<polygon fill="#878787" points="269.434,335.739 269.458,364.502 236.944,364.502 143.99,244.991 183.865,244.991 	"/>
	<polygon fill="#878787" points="296.266,335.739 296.242,364.502 329.988,364.502 422.941,244.991 383.105,244.991 	"/>
	<polygon fill="#878787" points="296.242,103.018 296.242,85.574 329.988,85.574 402.896,138.691 383.105,165.581 	"/>
</g>
<g>
	<g>
		<path fill="#565656" d="M140.429,423.009c0,2.652,0,5.438-1.68,7.647c-1.37,1.813-3.492,2.741-5.747,2.741
			c-2.21,0-4.244-1.062-5.923-2.476l2.078-2.873c1.193,1.104,2.21,1.9,3.934,1.9c3.625,0,3.625-4.332,3.625-6.94v-26.39h3.713
			V423.009z"/>
		<path fill="#565656" d="M152.232,420.489l-4.022,9.46h-4.067l15.383-34.922l14.985,34.922h-4.111l-3.935-9.46H152.232z
			 M159.438,403.691l-5.703,13.35h11.272L159.438,403.691z"/>
		<path fill="#565656" d="M184.15,422.036l9.504-25.417h4.022l-13.526,35.319l-13.527-35.319h4.023L184.15,422.036z"/>
		<path fill="#565656" d="M205.105,429.949h-3.713v-33.33h3.713V429.949z"/>
		<path fill="#565656" d="M211.869,396.619h17.284v3.447h-13.571v9.902h13.173v3.448h-13.173v13.084h13.571v3.448h-17.284V396.619z"
			/>
		<path fill="#565656" d="M239.189,429.949h-3.713v-33.33h4.818c6.321,0,12.201,1.68,12.201,9.194c0,5.128-3.227,8.753-8.355,9.194
			l10.609,14.941h-4.553l-10.079-14.632h-0.928V429.949z M239.189,412.046h1.149c4.199,0,8.443-0.795,8.443-5.967
			c0-5.481-4.022-6.013-8.487-6.013h-1.105V412.046z"/>
		<path fill="#2C2B2C" d="M280.39,410.146v-13.526h3.713v33.33h-3.713v-16.355h-17.063v16.355h-3.713v-33.33h3.713v13.526H280.39z"
			/>
		<path fill="#2C2B2C" d="M291.002,396.619h17.283v3.447h-13.57v9.902h13.174v3.448h-13.174v13.084h13.57v3.448h-17.283V396.619z"/>
		<path fill="#2C2B2C" d="M318.322,429.949h-3.715v-33.33h4.818c6.322,0,12.201,1.68,12.201,9.194c0,5.128-3.227,8.753-8.355,9.194
			l10.609,14.941h-4.553l-10.078-14.632h-0.928V429.949z M318.322,412.046h1.148c4.199,0,8.443-0.795,8.443-5.967
			c0-5.481-4.023-6.013-8.488-6.013h-1.104V412.046z"/>
		<path fill="#2C2B2C" d="M338.791,395.204l25.992,27.23v-25.815h3.713v34.833l-25.992-27.186v25.683h-3.713V395.204z"/>
		<path fill="#2C2B2C" d="M380.434,420.489l-4.023,9.46h-4.066l15.383-34.922l14.986,34.922h-4.111l-3.934-9.46H380.434z
			 M387.639,403.691l-5.703,13.35h11.273L387.639,403.691z M393.828,387.292l-6.764,6.808l-2.211-1.238l5.26-7.249L393.828,387.292z
			"/>
		<path fill="#2C2B2C" d="M406.561,395.204l25.992,27.23v-25.815h3.713v34.833l-25.992-27.186v25.683h-3.713V395.204z"/>
	</g>
	<g>
		<path fill="#878787" d="M149.884,451.088c-2.059-2.128-4.907-3.432-7.893-3.432c-5.765,0-10.432,5.011-10.432,10.707
			s4.701,10.707,10.501,10.707c2.917,0,5.765-1.373,7.824-3.432v3.568c-2.23,1.613-4.976,2.54-7.721,2.54
			c-7.31,0-13.487-5.937-13.487-13.281c0-7.412,6.074-13.486,13.487-13.486c2.882,0,5.422,0.824,7.721,2.54V451.088z"/>
		<path fill="#878787" d="M158.635,463.957l-3.123,7.344h-3.157l11.942-27.11l11.633,27.11h-3.191l-3.054-7.344H158.635z
			 M164.229,450.916l-4.427,10.364h8.75L164.229,450.916z"/>
		<path fill="#878787" d="M178.745,445.426H183c4.702,0,8.648,1.716,8.648,7.001c0,2.093-0.789,3.878-2.54,5.044
			c3.089,0.755,4.908,3.535,4.908,6.623c0,5.148-4.153,7.207-9.266,7.207h-6.006V445.426z M181.628,456.819h1.098
			c3.26,0,6.04-0.378,6.04-4.393c0-3.912-2.471-4.324-6.006-4.324h-1.132V456.819z M181.628,468.624h2.883
			c3.226,0,6.623-0.789,6.623-4.735c0-4.016-3.844-4.599-7-4.599h-2.505V468.624z"/>
		<path fill="#878787" d="M202.116,463.957l-3.123,7.344h-3.157l11.942-27.11l11.633,27.11h-3.191l-3.054-7.344H202.116z
			 M207.709,450.916l-4.427,10.364h8.75L207.709,450.916z"/>
		<path fill="#878787" d="M225.108,468.624h7.138v2.677h-10.021v-25.875h2.883V468.624z"/>
		<path fill="#878787" d="M237.978,468.624h7.138v2.677h-10.021v-25.875h2.883V468.624z"/>
		<path fill="#878787" d="M247.964,445.426h13.418v2.677h-10.535v7.687h10.227v2.677h-10.227v10.158h10.535v2.677h-13.418V445.426z"
			/>
		<path fill="#878787" d="M269.172,471.301h-2.883v-25.875h3.741c4.907,0,9.471,1.304,9.471,7.138c0,3.981-2.505,6.795-6.485,7.138
			l8.235,11.6h-3.534l-7.824-11.359h-0.721V471.301z M269.172,457.402h0.893c3.26,0,6.555-0.617,6.555-4.633
			c0-4.255-3.123-4.667-6.589-4.667h-0.858V457.402z"/>
		<path fill="#878787" d="M310.559,458.397c0,7.447-6.107,13.35-13.486,13.35s-13.487-5.902-13.487-13.35
			c0-7.412,6.108-13.418,13.487-13.418S310.559,450.985,310.559,458.397z M286.469,458.363c0,5.834,4.736,10.707,10.604,10.707
			c5.869,0,10.604-4.873,10.604-10.707c0-5.868-4.666-10.707-10.604-10.707S286.469,452.495,286.469,458.363z"/>
		<path fill="#565656" d="M338.527,458.295c0.07,3.5-0.309,6.383-2.676,9.128s-5.971,4.324-9.574,4.324
			c-7.275,0-13.314-6.04-13.314-13.315c0-7.412,6.039-13.452,13.486-13.452c4.529,0,8.201,2.024,10.947,5.594l-2.094,1.956
			c-2.162-3.054-5.08-4.873-8.889-4.873c-5.902,0-10.57,4.977-10.57,10.81c0,2.746,1.1,5.354,3.021,7.31
			c1.887,1.888,4.633,3.295,7.344,3.295c4.494,0,9.23-3.295,9.23-8.099h-7.688v-2.677H338.527z"/>
		<path fill="#565656" d="M346.49,463.957l-3.123,7.344h-3.158l11.943-27.11l11.633,27.11h-3.191l-3.055-7.344H346.49z
			 M352.084,450.916l-4.428,10.364h8.75L352.084,450.916z"/>
		<path fill="#565656" d="M369.482,471.301H366.6v-25.875h3.74c4.908,0,9.473,1.304,9.473,7.138c0,3.981-2.506,6.795-6.486,7.138
			l8.236,11.6h-3.535l-7.824-11.359h-0.721V471.301z M369.482,457.402h0.893c3.26,0,6.555-0.617,6.555-4.633
			c0-4.255-3.123-4.667-6.59-4.667h-0.857V457.402z"/>
		<path fill="#565656" d="M404.932,451.088c-2.059-2.128-4.908-3.432-7.893-3.432c-5.766,0-10.434,5.011-10.434,10.707
			s4.703,10.707,10.502,10.707c2.916,0,5.766-1.373,7.824-3.432v3.568c-2.23,1.613-4.977,2.54-7.721,2.54
			c-7.311,0-13.486-5.937-13.486-13.281c0-7.412,6.074-13.486,13.486-13.486c2.883,0,5.422,0.824,7.721,2.54V451.088z"/>
		<path fill="#565656" d="M415.674,438.185l-5.252,5.285l-1.715-0.961l4.084-5.628L415.674,438.185z M412.756,471.301h-2.883
			v-25.875h2.883V471.301z"/>
		<path fill="#565656" d="M421.885,463.957l-3.123,7.344h-3.156l11.941-27.11l11.633,27.11h-3.191l-3.053-7.344H421.885z
			 M427.479,450.916l-4.428,10.364h8.752L427.479,450.916z"/>
	</g>
</g>
</svg>
